<svg xmlns="http://www.w3.org/2000/svg" xmlns:xlink="http://www.w3.org/1999/xlink" width="500" zoomAndPan="magnify" viewBox="0 0 375 374.999991" height="500" preserveAspectRatio="xMidYMid meet" version="1.0"><defs><g/><clipPath id="5964564e2f"><path d="M 64.039062 64.039062 L 310.789062 64.039062 L 310.789062 310.789062 L 64.039062 310.789062 Z M 64.039062 64.039062 " clip-rule="nonzero"/></clipPath></defs><g clip-path="url(#5964564e2f)"><path fill="#ffffff" d="M 187.496094 310.953125 C 119.289062 310.953125 64.039062 255.320312 64.039062 187.496094 C 64.039062 119.671875 119.289062 64.039062 187.496094 64.039062 C 255.703125 64.039062 310.953125 119.289062 310.953125 187.496094 C 310.953125 255.703125 255.320312 310.953125 187.496094 310.953125 Z M 187.496094 71.660156 C 123.480469 71.660156 71.660156 123.480469 71.660156 187.496094 C 71.660156 251.511719 123.480469 303.332031 187.496094 303.332031 C 251.511719 303.332031 303.332031 251.511719 303.332031 187.496094 C 303.332031 123.480469 251.128906 71.660156 187.496094 71.660156 Z M 187.496094 71.660156 " fill-opacity="1" fill-rule="nonzero"/></g><path stroke-linecap="butt" transform="matrix(0, 0.75, -0.75, 0, 191.248982, 64.039997)" fill="none" stroke-linejoin="miter" d="M -0.00124653 4.998642 L 320.238358 4.998642 " stroke="#ffffff" stroke-width="10" stroke-opacity="1" stroke-miterlimit="4"/><path stroke-linecap="butt" transform="matrix(0.75, 0, 0, 0.75, 17.971355, 182.999988)" fill="none" stroke-linejoin="miter" d="M 0.00173564 6.000016 L 52.074656 6.000016 " stroke="#ffffff" stroke-width="12" stroke-opacity="1" stroke-miterlimit="4"/><g fill="#ffffff" fill-opacity="1"><g transform="translate(75.454181, 214.874986)"><g><path d="M 103.109375 -63.9375 C 104.453125 -63.9375 105.488281 -63.726562 106.21875 -63.3125 C 106.957031 -62.894531 107.328125 -62.300781 107.328125 -61.53125 C 107.328125 -61.21875 107.234375 -60.800781 107.046875 -60.28125 C 106.847656 -59.707031 106.570312 -59.273438 106.21875 -58.984375 C 105.875 -58.703125 105.347656 -58.335938 104.640625 -57.890625 C 103.617188 -57.316406 102.800781 -56.675781 102.1875 -55.96875 C 101.582031 -55.257812 101.054688 -54.171875 100.609375 -52.703125 L 88.890625 -11.421875 C 88.640625 -10.585938 88.515625 -9.789062 88.515625 -9.03125 C 88.515625 -8.320312 88.625 -7.726562 88.84375 -7.25 C 89.070312 -6.769531 89.378906 -6.207031 89.765625 -5.5625 C 90.015625 -5.25 90.234375 -4.914062 90.421875 -4.5625 C 90.617188 -4.207031 90.71875 -3.835938 90.71875 -3.453125 C 90.71875 -3.328125 90.65625 -3.007812 90.53125 -2.5 C 90.269531 -1.664062 89.675781 -1.054688 88.75 -0.671875 C 87.820312 -0.285156 86.492188 -0.09375 84.765625 -0.09375 L 62.203125 -0.09375 C 60.859375 -0.09375 59.816406 -0.316406 59.078125 -0.765625 C 58.347656 -1.210938 57.984375 -1.820312 57.984375 -2.59375 C 57.984375 -2.976562 58.078125 -3.394531 58.265625 -3.84375 C 58.460938 -4.289062 58.734375 -4.6875 59.078125 -5.03125 C 59.429688 -5.382812 59.753906 -5.640625 60.046875 -5.796875 C 60.335938 -5.960938 60.546875 -6.109375 60.671875 -6.234375 C 61.691406 -6.816406 62.519531 -7.457031 63.15625 -8.15625 C 63.800781 -8.863281 64.347656 -9.953125 64.796875 -11.421875 L 72.09375 -37.34375 L 47.234375 -6.53125 C 45.179688 -4.03125 43.53125 -2.316406 42.28125 -1.390625 C 41.039062 -0.460938 39.617188 0 38.015625 0 C 36.484375 0 35.285156 -0.492188 34.421875 -1.484375 C 33.554688 -2.472656 32.769531 -4.15625 32.0625 -6.53125 L 23.046875 -36.1875 L 15.9375 -11.328125 C 15.675781 -10.492188 15.546875 -9.691406 15.546875 -8.921875 C 15.546875 -8.160156 15.65625 -7.519531 15.875 -7 C 16.101562 -6.488281 16.441406 -5.945312 16.890625 -5.375 C 17.472656 -4.539062 17.765625 -3.867188 17.765625 -3.359375 C 17.765625 -3.234375 17.695312 -2.914062 17.5625 -2.40625 C 17.3125 -1.507812 16.738281 -0.882812 15.84375 -0.53125 C 14.945312 -0.175781 13.601562 0 11.8125 0 L 3.84375 0 C 2.5 0 1.457031 -0.222656 0.71875 -0.671875 C -0.0195312 -1.117188 -0.390625 -1.726562 -0.390625 -2.5 C -0.390625 -2.882812 -0.289062 -3.300781 -0.09375 -3.75 C 0.15625 -4.445312 0.566406 -4.988281 1.140625 -5.375 C 1.722656 -5.757812 2.078125 -5.984375 2.203125 -6.046875 C 3.234375 -6.691406 4.066406 -7.347656 4.703125 -8.015625 C 5.335938 -8.691406 5.882812 -9.796875 6.34375 -11.328125 L 18.046875 -52.796875 L 16.515625 -57.890625 C 16.191406 -58.847656 16.03125 -59.773438 16.03125 -60.671875 C 16.03125 -61.828125 16.394531 -62.660156 17.125 -63.171875 C 17.863281 -63.679688 19.003906 -63.9375 20.546875 -63.9375 L 35.421875 -63.9375 C 37.335938 -63.9375 38.757812 -63.519531 39.6875 -62.6875 C 40.625 -61.851562 41.378906 -60.414062 41.953125 -58.375 L 51.546875 -26.5 L 77.5625 -58.84375 C 79.226562 -60.894531 80.859375 -62.253906 82.453125 -62.921875 C 84.054688 -63.597656 86.171875 -63.9375 88.796875 -63.9375 Z M 103.109375 -63.9375 "/></g></g></g><g fill="#ffffff" fill-opacity="1"><g transform="translate(207.249996, 214.874986)"><g><path d="M 67.875 -63.9375 C 69.988281 -63.9375 71.679688 -63.375 72.953125 -62.25 C 74.234375 -61.132812 74.875 -59.710938 74.875 -57.984375 C 74.875 -55.554688 73.691406 -53.15625 71.328125 -50.78125 L 29.65625 -9.21875 L 40.984375 -9.21875 C 42.203125 -9.21875 43.273438 -9.457031 44.203125 -9.9375 C 45.128906 -10.414062 46.140625 -11.265625 47.234375 -12.484375 L 52.984375 -18.8125 C 54.015625 -19.90625 54.992188 -20.691406 55.921875 -21.171875 C 56.847656 -21.648438 57.984375 -21.890625 59.328125 -21.890625 C 60.734375 -21.890625 61.882812 -21.566406 62.78125 -20.921875 C 63.675781 -20.285156 64.125 -19.328125 64.125 -18.046875 C 64.125 -17.535156 64.03125 -16.925781 63.84375 -16.21875 L 61.0625 -6.53125 C 60.351562 -4.09375 59.328125 -2.394531 57.984375 -1.4375 C 56.640625 -0.476562 54.6875 0 52.125 0 L 9.125 0 C 6.363281 0 4.296875 -0.554688 2.921875 -1.671875 C 1.546875 -2.796875 0.859375 -4.316406 0.859375 -6.234375 C 0.859375 -7.390625 1.160156 -8.523438 1.765625 -9.640625 C 2.378906 -10.765625 3.359375 -12.03125 4.703125 -13.4375 L 43.78125 -54.71875 L 34.84375 -54.71875 C 33.632812 -54.71875 32.5625 -54.476562 31.625 -54 C 30.695312 -53.519531 29.691406 -52.671875 28.609375 -51.453125 L 22.84375 -45.125 C 21.820312 -44.03125 20.847656 -43.242188 19.921875 -42.765625 C 18.992188 -42.285156 17.859375 -42.046875 16.515625 -42.046875 C 15.109375 -42.046875 13.957031 -42.363281 13.0625 -43 C 12.164062 -43.644531 11.71875 -44.609375 11.71875 -45.890625 C 11.71875 -46.460938 11.8125 -47.070312 12 -47.71875 L 14.78125 -57.40625 C 15.488281 -59.84375 16.515625 -61.539062 17.859375 -62.5 C 19.203125 -63.457031 21.15625 -63.9375 23.71875 -63.9375 Z M 67.875 -63.9375 "/></g></g></g><path stroke-linecap="butt" transform="matrix(0.75, 0, 0, 0.75, 325.15847, 182.999988)" fill="none" stroke-linejoin="miter" d="M 0.00224787 6.000016 L 52.075168 6.000016 " stroke="#ffffff" stroke-width="12" stroke-opacity="1" stroke-miterlimit="4"/></svg>